inverse kinematics
nRows=24
nColumns=12

# SIMM Motion File Header:
name inverse kinematics
datacolumns 12
datarows 24
otherdata 1
range 0.00000000 0.19166667
endheader
time	r_shoulder_elev	r_elbow_flex	r_acromion_tx	r_acromion_ty	r_acromion_tz	r_humerus_epicondyle_tx	r_humerus_epicondyle_ty	r_humerus_epicondyle_tz	r_radius_styloid_tx	r_radius_styloid_ty	r_radius_styloid_tz
      0.00000000	     -0.36571172	      0.89932091	     -0.01305452	      0.03950548	      0.16950548	     -0.01255938	     -0.29741438	      0.19998562	     -0.01312468	     -0.53356968	      0.25142032
      0.00833333	     -0.34635835	      0.92606446	     -0.01296065	      0.03959935	      0.16959935	     -0.01256732	     -0.29742232	      0.19997768	     -0.01286702	     -0.53360038	      0.25138255
      0.01666667	     -0.33196550	      0.95466896	     -0.01285343	      0.03970657	      0.16970657	     -0.01257439	     -0.29742939	      0.19997061	     -0.01258261	     -0.53362982	      0.25134502
      0.02500000	     -0.31486548	      0.98516023	     -0.01273643	      0.03982357	      0.16982357	     -0.01258031	     -0.29743531	      0.19996469	     -0.01224700	     -0.53365833	      0.25130658
      0.03333333	     -0.34958635	      1.16797448	     -0.01261356	      0.03994644	      0.16994644	     -0.01258485	     -0.29743985	      0.19996015	     -0.01183747	     -0.53368607	      0.25126617
      0.04166667	     -0.32091242	      1.18102966	     -0.01248890	      0.04007110	      0.17007110	     -0.01258782	     -0.29744282	      0.19995718	     -0.01133375	     -0.53371292	      0.25122284
      0.05000000	     -0.27147880	      1.21348294	     -0.01236661	      0.04019339	      0.17019339	     -0.01258911	     -0.29744411	      0.19995589	     -0.01071857	     -0.53373847	      0.25117577
      0.05833333	     -0.29593672	      1.45165354	     -0.01225076	      0.04030924	      0.17030924	     -0.01258868	     -0.29744368	      0.19995632	     -0.00997806	     -0.53376194	      0.25112427
      0.06666667	     -0.23255294	      1.48542215	     -0.01214522	      0.04041478	      0.17041478	     -0.01258653	     -0.29744153	      0.19995847	     -0.00910189	     -0.53378220	      0.25106785
      0.07500000	     -0.24906631	      1.77076571	     -0.01205349	      0.04050651	      0.17050651	     -0.01258276	     -0.29743776	      0.19996224	     -0.00808330	     -0.53379774	      0.25100613
      0.08333333	     -0.16473664	      1.81603600	     -0.01197863	      0.04058137	      0.17058137	     -0.01257751	     -0.29743251	      0.19996749	     -0.00691885	     -0.53380669	      0.25093892
      0.09166667	     -0.20303900	      2.23239981	     -0.01192314	      0.04063686	      0.17063686	     -0.01257098	     -0.29742598	      0.19997402	     -0.00560804	     -0.53380691	      0.25086614
      0.10000000	     -0.09914484	      2.30366584	     -0.01188886	      0.04067114	      0.17067114	     -0.01256343	     -0.29741843	      0.19998157	     -0.00415286	     -0.53379600	      0.25078780
      0.10833333	     -0.16279847	      2.84960286	     -0.01187693	      0.04068307	      0.17068307	     -0.01255517	     -0.29741017	      0.19998983	     -0.00255714	     -0.53377143	      0.25070403
      0.11666667	     -0.14515615	      3.21583550	     -0.01188776	      0.04067224	      0.17067224	     -0.01254650	     -0.29740150	      0.19999850	     -0.00082605	     -0.53373051	      0.25061499
      0.12500000	     -0.12953200	      3.61836241	     -0.01192099	      0.04063901	      0.17063901	     -0.01253778	     -0.29739278	      0.20000722	      0.00103459	     -0.53367055	      0.25052087
      0.13333333	     -0.11559872	      4.05556346	     -0.01197549	      0.04058451	      0.17058451	     -0.01252933	     -0.29738433	      0.20001567	      0.00301876	     -0.53358881	      0.25042188
      0.14166667	     -0.10321086	      4.52565937	     -0.01204947	      0.04051053	      0.17051053	     -0.01252151	     -0.29737651	      0.20002349	      0.00512072	     -0.53348253	      0.25031818
      0.15000000	     -0.09222400	      5.02703208	     -0.01214045	      0.04041955	      0.17041955	     -0.01251460	     -0.29736960	      0.20003040	      0.00733533	     -0.53334896	      0.25020993
      0.15833333	     -0.08250693	      5.55831114	     -0.01224541	      0.04031459	      0.17031459	     -0.01250888	     -0.29736388	      0.20003612	      0.00965821	     -0.53318529	      0.25009722
      0.16666667	     -0.07394526	      6.11840519	     -0.01236085	      0.04019915	      0.17019915	     -0.01250458	     -0.29735958	      0.20004042	      0.01208588	     -0.53298865	      0.24998010
      0.17500000	     -0.06643992	      6.70649281	     -0.01248292	      0.04007708	      0.17007708	     -0.01250187	     -0.29735687	      0.20004313	      0.01461569	     -0.53275611	      0.24985856
      0.18333333	     -0.05990367	      7.32198529	     -0.01260756	      0.03995244	      0.16995244	     -0.01250084	     -0.29735584	      0.20004416	      0.01724570	     -0.53248458	      0.24973256
      0.19166667	     -0.05425688	      7.96447193	     -0.01273061	      0.03982939	      0.16982939	     -0.01250154	     -0.29735654	      0.20004346	      0.01997452	     -0.53217087	      0.24960202
